<svg width="99" height="36" viewBox="0 0 99 36" fill="none" xmlns="http://www.w3.org/2000/svg">
<path d="M15.9647 3.77207V18L12.5033 16.1471C6.35762 12.8382 2.54304 6.68382 2.54304 0H0V16.2794C0 21.5735 3.24944 26.4706 8.40618 28.7868L16.0353 32.228V18L19.4967 19.8529C25.6424 23.1618 29.457 29.3162 29.457 36H32V19.7206C32 14.4265 28.7506 9.52941 23.5938 7.21323L15.9647 3.77207Z" fill="white"/>
<path d="M54.9432 16.1477H53.1705C53.1023 15.7689 52.9754 15.4356 52.7898 15.1477C52.6042 14.8598 52.3769 14.6155 52.108 14.4148C51.839 14.214 51.5379 14.0625 51.2045 13.9602C50.875 13.858 50.5246 13.8068 50.1534 13.8068C49.483 13.8068 48.8826 13.9754 48.3523 14.3125C47.8258 14.6496 47.4091 15.1439 47.1023 15.7955C46.7992 16.447 46.6477 17.2424 46.6477 18.1818C46.6477 19.1288 46.7992 19.928 47.1023 20.5795C47.4091 21.2311 47.8277 21.7235 48.358 22.0568C48.8883 22.3902 49.4848 22.5568 50.1477 22.5568C50.5152 22.5568 50.8636 22.5076 51.1932 22.4091C51.5265 22.3068 51.8277 22.1572 52.0966 21.9602C52.3655 21.7633 52.5928 21.5227 52.7784 21.2386C52.9678 20.9508 53.0985 20.6212 53.1705 20.25L54.9432 20.2557C54.8485 20.8277 54.6648 21.3542 54.392 21.8352C54.1231 22.3125 53.7765 22.7254 53.3523 23.0739C52.9318 23.4186 52.4508 23.6856 51.9091 23.875C51.3674 24.0644 50.7765 24.1591 50.1364 24.1591C49.1288 24.1591 48.2311 23.9205 47.4432 23.4432C46.6553 22.9621 46.0341 22.2746 45.5795 21.3807C45.1288 20.4867 44.9034 19.4205 44.9034 18.1818C44.9034 16.9394 45.1307 15.8731 45.5852 14.983C46.0398 14.089 46.661 13.4034 47.4489 12.9261C48.2367 12.4451 49.1326 12.2045 50.1364 12.2045C50.7538 12.2045 51.3295 12.2936 51.8636 12.4716C52.4015 12.6458 52.8845 12.9034 53.3125 13.2443C53.7405 13.5814 54.0947 13.9943 54.375 14.483C54.6553 14.9678 54.8447 15.5227 54.9432 16.1477ZM58.6065 12.3636V24H56.9077V12.3636H58.6065ZM64.5682 24.1761C63.75 24.1761 63.036 23.9886 62.4261 23.6136C61.8163 23.2386 61.3428 22.714 61.0057 22.0398C60.6686 21.3655 60.5 20.5777 60.5 19.6761C60.5 18.7708 60.6686 17.9792 61.0057 17.3011C61.3428 16.6231 61.8163 16.0966 62.4261 15.7216C63.036 15.3466 63.75 15.1591 64.5682 15.1591C65.3864 15.1591 66.1004 15.3466 66.7102 15.7216C67.3201 16.0966 67.7936 16.6231 68.1307 17.3011C68.4678 17.9792 68.6364 18.7708 68.6364 19.6761C68.6364 20.5777 68.4678 21.3655 68.1307 22.0398C67.7936 22.714 67.3201 23.2386 66.7102 23.6136C66.1004 23.9886 65.3864 24.1761 64.5682 24.1761ZM64.5739 22.75C65.1042 22.75 65.5436 22.6098 65.892 22.3295C66.2405 22.0492 66.4981 21.6761 66.6648 21.2102C66.8352 20.7443 66.9205 20.2311 66.9205 19.6705C66.9205 19.1136 66.8352 18.6023 66.6648 18.1364C66.4981 17.6667 66.2405 17.2898 65.892 17.0057C65.5436 16.7216 65.1042 16.5795 64.5739 16.5795C64.0398 16.5795 63.5966 16.7216 63.2443 17.0057C62.8958 17.2898 62.6364 17.6667 62.4659 18.1364C62.2992 18.6023 62.2159 19.1136 62.2159 19.6705C62.2159 20.2311 62.2992 20.7443 62.4659 21.2102C62.6364 21.6761 62.8958 22.0492 63.2443 22.3295C63.5966 22.6098 64.0398 22.75 64.5739 22.75ZM76.0611 20.3807V15.2727H77.7656V24H76.0952V22.4886H76.0043C75.8035 22.9545 75.4815 23.3428 75.0384 23.6534C74.599 23.9602 74.0516 24.1136 73.3963 24.1136C72.8357 24.1136 72.3395 23.9905 71.9077 23.7443C71.4796 23.4943 71.1425 23.125 70.8963 22.6364C70.6539 22.1477 70.5327 21.5436 70.5327 20.8239V15.2727H72.2315V20.6193C72.2315 21.214 72.3963 21.6875 72.7259 22.0398C73.0554 22.392 73.4834 22.5682 74.0099 22.5682C74.3281 22.5682 74.6444 22.4886 74.9588 22.3295C75.277 22.1705 75.5402 21.9299 75.7486 21.608C75.9607 21.286 76.0649 20.8769 76.0611 20.3807ZM83.3153 24.1705C82.6108 24.1705 81.982 23.9905 81.429 23.6307C80.8797 23.267 80.4479 22.75 80.1335 22.0795C79.8229 21.4053 79.6676 20.5966 79.6676 19.6534C79.6676 18.7102 79.8248 17.9034 80.1392 17.233C80.4574 16.5625 80.893 16.0492 81.446 15.6932C81.9991 15.3371 82.6259 15.1591 83.3267 15.1591C83.8684 15.1591 84.304 15.25 84.6335 15.4318C84.9669 15.6098 85.2244 15.8182 85.4062 16.0568C85.5919 16.2955 85.7358 16.5057 85.8381 16.6875H85.9403V12.3636H87.6392V24H85.9801V22.642H85.8381C85.7358 22.8277 85.5881 23.0398 85.3949 23.2784C85.2055 23.517 84.9441 23.7254 84.6108 23.9034C84.2775 24.0814 83.8456 24.1705 83.3153 24.1705ZM83.6903 22.7216C84.179 22.7216 84.5919 22.5928 84.929 22.3352C85.2699 22.0739 85.5275 21.7121 85.7017 21.25C85.8797 20.7879 85.9688 20.25 85.9688 19.6364C85.9688 19.0303 85.8816 18.5 85.7074 18.0455C85.5331 17.5909 85.2775 17.2367 84.9403 16.983C84.6032 16.7292 84.1866 16.6023 83.6903 16.6023C83.179 16.6023 82.7528 16.7348 82.4119 17C82.071 17.2652 81.8134 17.6269 81.6392 18.0852C81.4688 18.5436 81.3835 19.0606 81.3835 19.6364C81.3835 20.2197 81.4706 20.7443 81.6449 21.2102C81.8191 21.6761 82.0767 22.0455 82.4176 22.3182C82.7623 22.5871 83.1866 22.7216 83.6903 22.7216ZM93.7401 24.1761C92.9219 24.1761 92.2079 23.9886 91.598 23.6136C90.9882 23.2386 90.5147 22.714 90.1776 22.0398C89.8404 21.3655 89.6719 20.5777 89.6719 19.6761C89.6719 18.7708 89.8404 17.9792 90.1776 17.3011C90.5147 16.6231 90.9882 16.0966 91.598 15.7216C92.2079 15.3466 92.9219 15.1591 93.7401 15.1591C94.5582 15.1591 95.2723 15.3466 95.8821 15.7216C96.492 16.0966 96.9654 16.6231 97.3026 17.3011C97.6397 17.9792 97.8082 18.7708 97.8082 19.6761C97.8082 20.5777 97.6397 21.3655 97.3026 22.0398C96.9654 22.714 96.492 23.2386 95.8821 23.6136C95.2723 23.9886 94.5582 24.1761 93.7401 24.1761ZM93.7457 22.75C94.276 22.75 94.7154 22.6098 95.0639 22.3295C95.4124 22.0492 95.67 21.6761 95.8366 21.2102C96.0071 20.7443 96.0923 20.2311 96.0923 19.6705C96.0923 19.1136 96.0071 18.6023 95.8366 18.1364C95.67 17.6667 95.4124 17.2898 95.0639 17.0057C94.7154 16.7216 94.276 16.5795 93.7457 16.5795C93.2116 16.5795 92.7685 16.7216 92.4162 17.0057C92.0677 17.2898 91.8082 17.6667 91.6378 18.1364C91.4711 18.6023 91.3878 19.1136 91.3878 19.6705C91.3878 20.2311 91.4711 20.7443 91.6378 21.2102C91.8082 21.6761 92.0677 22.0492 92.4162 22.3295C92.7685 22.6098 93.2116 22.75 93.7457 22.75Z" fill="white"/>
</svg>
