<svg width="24" height="24" viewBox="0 0 24 24" fill="none" xmlns="http://www.w3.org/2000/svg">
<g clip-path="url(#clip0_132_40)">
<path opacity="0.2" d="M0.363723 13.6945L0.421905 4.96865C0.432087 3.38902 1.53681 2.03484 3.06191 1.73302L11.4888 0.0624719C13.5135 -0.338983 15.3928 1.24574 15.3797 3.34247L15.3215 12.0697C15.3106 13.6487 14.2059 15.0021 12.6808 15.3047L4.25391 16.9752C2.22918 17.3767 0.349905 15.7919 0.363723 13.6945Z" fill="#A4A7AE"/>
<path opacity="0.5" d="M4.49239 17.176L4.55057 8.44873C4.56002 6.87055 5.66548 5.5171 7.19057 5.21455L15.6175 3.54473C17.6422 3.14328 19.5215 4.72728 19.5077 6.82473L19.4495 15.552C19.4393 17.1309 18.3346 18.4844 16.8095 18.7869L8.38257 20.4575C6.35784 20.8582 4.47857 19.2742 4.49239 17.1775V17.176Z" fill="#A4A7AE"/>
<path opacity="0.8" d="M8.6211 20.6575L8.67928 11.9302C8.68946 10.3506 9.79419 8.99784 11.3193 8.6953L19.7462 7.02475C21.7709 6.6233 23.6502 8.20802 23.6364 10.3048L23.5782 19.032C23.568 20.6117 22.4633 21.9651 20.9382 22.2669L12.5113 23.9375C10.4865 24.3389 8.60728 22.7542 8.62037 20.6575H8.6211Z" fill="#A4A7AE"/>
</g>
<defs>
<clipPath id="clip0_132_40">
<rect width="24" height="24" fill="white"/>
</clipPath>
</defs>
</svg>
